<svg xmlns="http://www.w3.org/2000/svg" xmlns:xlink="http://www.w3.org/1999/xlink" width="256.464" height="52.898" viewBox="0 0 256.464 52.898"><defs><style>.a{fill:#1185c7;}.b{clip-path:url(#a);}.c{fill:#3a3e3d;}</style><clipPath id="a"><path class="a" d="M0,8.254H256.464v-52.9H0Z" transform="translate(0 44.644)"/></clipPath></defs><g transform="translate(0 44.644)"><g class="b" transform="translate(0 -44.644)"><g transform="translate(0)"><path class="a" d="M1.463,8.254-5.264,1.5A8.9,8.9,0,0,1-7.915-4.955a9.231,9.231,0,0,1,2.77-6.4L1.692-18.2l-6.838-6.839a9.224,9.224,0,0,1-2.769-6.4,8.906,8.906,0,0,1,2.652-6.458l6.727-6.753,19.9,19.9a9.206,9.206,0,0,1,2.7,6.685,9.209,9.209,0,0,1-2.705,6.414ZM4.172-15.715-2.666-8.876A5.735,5.735,0,0,0-4.408-4.9,5.419,5.419,0,0,0-2.78-.977L1.468,3.289,13.736-8.979a9.181,9.181,0,0,1-5.471-2.642ZM6.653-18.2,10.745-14.1A5.708,5.708,0,0,0,14.8-12.426h.006a5.7,5.7,0,0,0,4.062-1.688,5.771,5.771,0,0,0,1.692-4,5.782,5.782,0,0,0-1.692-4.158,5.706,5.706,0,0,0-4.062-1.687H14.8a5.709,5.709,0,0,0-4.059,1.679ZM1.468-39.679-2.78-35.414a5.419,5.419,0,0,0-1.628,3.927,5.734,5.734,0,0,0,1.741,3.972l6.839,6.84,4.093-4.093a9.183,9.183,0,0,1,5.472-2.643Z" transform="translate(7.916 44.644)"/></g><g transform="translate(47.439 10.03)"><path class="c" d="M.551,3.224V-8.285H-1.034c-1.4,0-1.948-.59-1.948-1.678v-.316c0-1.088.544-1.677,1.948-1.677H.551v-3.352c0-1.542.77-2.13,1.994-2.13H3c1.178,0,1.948.454,1.948,2.13v3.352h4.94c1.405,0,1.9.544,1.9,1.632v.316c0,1.133-.545,1.723-1.95,1.723H4.9V2.725c0,2.719.77,4.032,2.9,4.032a3.69,3.69,0,0,0,3.082-1.539c.136-.137,1.268.5,1.268,1.9A2.689,2.689,0,0,1,11.2,9.114a6.127,6.127,0,0,1-4.123,1.314c-4.485,0-6.524-2.492-6.524-7.2" transform="translate(2.982 17.438)"/></g><g transform="translate(63.107 14.968)"><path class="c" d="M1.739,0c6.3,0,10.467,4.441,10.467,10.965v.363c0,.951-.316,1.314-1.359,1.314H-5.239a5.006,5.006,0,0,0,.091.815,7.08,7.08,0,0,0,7.339,5.936c3.808,0,5.71-1.677,6.844-3.625.09-.091,2.356.318,2.356,2.22,0,.951-.815,2.174-2.4,3.171A12.888,12.888,0,0,1,2.1,22.927c-6.887,0-11.509-4.577-11.509-11.374C-9.407,4.939-4.694,0,1.739,0M1.7,3.4A6.948,6.948,0,0,0-5.192,9.606H7.857C7.63,5.845,5.32,3.4,1.7,3.4" transform="translate(9.407)"/></g><g transform="translate(87.747 6.626)"><path class="c" d="M0,.078a2.226,2.226,0,0,1,1.63-.5C2.989-.42,4.486.3,4.486,3.431V18.252l7.567-8.473a3.491,3.491,0,0,1,2.673-1.54c1.587,0,2.492,1.54,2.311,1.767L9.107,18.751l9.153,9.923c.135.226-.86,1.812-2.447,1.812a3.358,3.358,0,0,1-2.673-1.54L4.486,19.613v8.7c0,1.632-.861,2.129-1.993,2.129h-.5C.816,30.441,0,29.944,0,28.312Z" transform="translate(0 0.42)"/></g><g transform="translate(113.794 14.968)"><path class="c" d="M1.739,0c6.3,0,10.467,4.441,10.467,10.965v.363c0,.951-.316,1.314-1.359,1.314H-5.239a5.006,5.006,0,0,0,.091.815,7.081,7.081,0,0,0,7.342,5.936c3.806,0,5.708-1.677,6.841-3.625.09-.091,2.356.318,2.356,2.22,0,.951-.815,2.174-2.4,3.171A12.891,12.891,0,0,1,2.1,22.927c-6.887,0-11.508-4.577-11.508-11.374C-9.406,4.939-4.694,0,1.739,0M1.7,3.4A6.948,6.948,0,0,0-5.193,9.606H7.856C7.63,5.845,5.32,3.4,1.7,3.4" transform="translate(9.406)"/></g><g transform="translate(136.011 15.286)"><path class="c" d="M1.127,1.739-5.985-7.775c-.136-.227.815-1.632,2.4-1.632A3.2,3.2,0,0,1-.774-7.549L4.073-.616,8.831-7.549a3.348,3.348,0,0,1,2.763-1.858c1.632,0,2.627,1.45,2.492,1.632l-7.2,9.515,7.067,9.425c.136.227-.77,1.677-2.447,1.677a3.173,3.173,0,0,1-2.764-1.858L3.892,4.1-.821,10.937a3.363,3.363,0,0,1-2.809,1.9c-1.585,0-2.627-1.494-2.448-1.677Z" transform="translate(6.098 9.407)"/></g><g transform="translate(158.391 14.968)"><path class="c" d="M3.478,1.782c0,6.841-4.3,11.509-10.331,11.509a8.411,8.411,0,0,1-7.475-4.077v10.24c0,1.632-.863,2.13-1.994,2.13h-.5c-1.178,0-1.994-.5-1.994-2.13V-8.821a2.224,2.224,0,0,1,1.63-.5c1.088,0,2.312.5,2.674,2.492a7.743,7.743,0,0,1,.136,1.269A8.687,8.687,0,0,1-6.716-9.637c5.844,0,10.195,4.486,10.195,11.419m-4.351.045c0-4.531-2.808-7.748-6.705-7.748a6.956,6.956,0,0,0-6.8,4.531V3.187A6.511,6.511,0,0,0-7.668,9.575c4.077,0,6.8-3.126,6.8-7.748" transform="translate(18.815 9.637)"/></g><g transform="translate(182.563 14.968)"><path class="c" d="M1.739,0c6.3,0,10.467,4.441,10.467,10.965v.363c0,.951-.316,1.314-1.359,1.314H-5.239a5.006,5.006,0,0,0,.091.815,7.08,7.08,0,0,0,7.339,5.936c3.808,0,5.71-1.677,6.844-3.625.09-.091,2.356.318,2.356,2.22,0,.951-.815,2.174-2.4,3.171A12.888,12.888,0,0,1,2.1,22.927c-6.887,0-11.509-4.577-11.509-11.374C-9.407,4.939-4.694,0,1.739,0M1.7,3.4A6.948,6.948,0,0,0-5.192,9.606H7.857C7.63,5.845,5.32,3.4,1.7,3.4" transform="translate(9.407)"/></g><g transform="translate(207.201 14.969)"><path class="c" d="M2.114.452A2.231,2.231,0,0,1,.755,2.763a4.228,4.228,0,0,0-2.764-.951c-3.534,0-4.94,3.444-4.94,8.473v7.658c0,1.632-.86,2.13-1.992,2.13h-.5c-1.178,0-1.994-.5-1.994-2.13V-1.632a2.224,2.224,0,0,1,1.63-.5A2.566,2.566,0,0,1-7.174.045a8.163,8.163,0,0,1,.181,1.632C-6.042-1-4.229-2.447-1.464-2.447.8-2.447,2.114-1.36,2.114.452" transform="translate(11.434 2.447)"/></g><g transform="translate(221.777 10.03)"><path class="c" d="M.551,3.224V-8.285H-1.034c-1.4,0-1.949-.59-1.949-1.678v-.316c0-1.088.545-1.677,1.949-1.677H.551v-3.352c0-1.542.77-2.13,1.994-2.13H3c1.178,0,1.948.454,1.948,2.13v3.352h4.94c1.405,0,1.9.544,1.9,1.632v.316c0,1.133-.545,1.723-1.95,1.723H4.9V2.725c0,2.719.77,4.032,2.9,4.032a3.69,3.69,0,0,0,3.082-1.539c.135-.137,1.268.5,1.268,1.9A2.689,2.689,0,0,1,11.2,9.114a6.129,6.129,0,0,1-4.123,1.314c-4.485,0-6.524-2.492-6.524-7.2" transform="translate(2.983 17.438)"/></g><g transform="translate(238.204 14.968)"><path class="c" d="M0,2.849A2.3,2.3,0,0,1,1.768.81a8.969,8.969,0,0,0,7.34,3.263c3.081,0,4.8-1.133,4.8-2.946,0-2.22-2.038-2.628-5.618-3.4C5.075-2.951.635-3.947.635-8.57c0-4.078,3.4-6.841,8.7-6.841,4.17,0,6.8,1.314,7.839,2.854a2.667,2.667,0,0,1,.543,1.54A2.386,2.386,0,0,1,15.9-8.931a7.88,7.88,0,0,0-6.389-3.082c-3.081,0-4.712,1.179-4.712,2.991,0,1.994,1.9,2.447,5.437,3.217,3.352.725,8.02,1.722,8.02,6.435,0,4.168-3.444,6.841-9.063,6.841a13.015,13.015,0,0,1-7.475-1.9A3.575,3.575,0,0,1,0,2.849" transform="translate(0 15.411)"/></g></g></g></svg>